<svg width="552" height="593" viewBox="0 0 552 593" fill="none" xmlns="http://www.w3.org/2000/svg">
<path d="M396.828 60.6342C403.776 67.5845 407.679 77.0098 407.679 86.8374C407.679 96.6651 403.776 106.09 396.828 113.041L213.369 296.5L396.828 479.959C403.579 486.949 407.315 496.312 407.231 506.029C407.146 515.747 403.248 525.043 396.377 531.914C389.505 538.786 380.209 542.684 370.491 542.768C360.774 542.853 351.412 539.117 344.422 532.366L134.759 322.703C127.811 315.753 123.908 306.328 123.908 296.5C123.908 286.672 127.811 277.247 134.759 270.297L344.422 60.6342C351.372 53.6861 360.797 49.7828 370.625 49.7828C380.453 49.7828 389.878 53.6861 396.828 60.6342V60.6342Z" fill="black"/>
</svg>
